<svg width="29" height="29" viewBox="0 0 29 29" fill="none" xmlns="http://www.w3.org/2000/svg">
<path fill-rule="evenodd" clip-rule="evenodd" d="M0.5 14C0.5 5.75117 6.69732 0.5 12 0.5C12.1825 0.5 12.3505 0.599423 12.4383 0.759395C12.5261 0.919368 12.5198 1.11448 12.4218 1.26844C5.70894 11.8173 17.1827 23.2911 27.7316 16.5782C27.8855 16.4802 28.0806 16.4739 28.2406 16.5617C28.4006 16.6495 28.5 16.8175 28.5 17C28.5 22.3027 23.2488 28.5 15 28.5C6.72386 28.5 0.5 22.2761 0.5 14ZM11.0874 1.55777C6.58448 2.11945 1.5 6.74436 1.5 14C1.5 21.7239 7.27614 27.5 15 27.5C22.2556 27.5 26.8805 22.4155 27.4422 17.9126C16.5031 23.9558 5.04419 12.4969 11.0874 1.55777Z" fill="#1D1D1D"/>
</svg>
