<svg width="44" height="50" viewBox="0 0 44 50" fill="none" xmlns="http://www.w3.org/2000/svg">
<path d="M21.5879 0C16.2294 0 11.8311 4.33462 11.8311 9.61538V11.5385H2.19528L2.07429 13.3423L0.122936 47.9577L0 50H43.1738L43.0528 47.9558L41.1014 13.3404L40.9785 11.5385H31.3447V9.61538C31.3447 4.33462 26.9463 0 21.5879 0ZM21.5879 3.84615C23.1405 3.84615 24.6295 4.45398 25.7273 5.53592C26.8252 6.61786 27.4419 8.08529 27.4419 9.61538V11.5385H15.7338V9.61538C15.7338 8.08529 16.3506 6.61786 17.4484 5.53592C18.5463 4.45398 20.0353 3.84615 21.5879 3.84615ZM5.85407 15.3846H11.8311H15.7338H27.4419H31.3447H37.3217L39.0291 46.1538H4.14859L5.85407 15.3846Z" fill="white"/>
</svg>
