<svg width="26" height="26" viewBox="0 0 26 26" fill="none" xmlns="http://www.w3.org/2000/svg">
<path d="M17.875 9.34917C17.4308 9.34917 17.0625 8.98083 17.0625 8.53667V7.04167C17.0625 5.90417 16.575 4.79917 15.73 4.03C14.8742 3.25 13.7692 2.8925 12.5992 3.00083C10.6492 3.185 8.9375 5.17833 8.9375 7.25833V8.30917C8.9375 8.75333 8.56917 9.12167 8.125 9.12167C7.68083 9.12167 7.3125 8.75333 7.3125 8.30917V7.2475C7.3125 4.33333 9.66333 1.64667 12.4475 1.37583C14.0725 1.22416 15.6325 1.73333 16.8242 2.8275C18.005 3.9 18.6875 5.43833 18.6875 7.04167V8.53667C18.6875 8.98083 18.3192 9.34917 17.875 9.34917Z" fill="#1D1D1D"/>
<path d="M16.25 24.6459H9.75005C4.74505 24.6459 3.81338 22.3167 3.57505 20.0526L2.76255 13.5634C2.64338 12.3934 2.60005 10.7142 3.73755 9.45758C4.71255 8.37425 6.32671 7.85425 8.66671 7.85425H17.3334C19.6842 7.85425 21.2984 8.38508 22.2625 9.45758C23.3892 10.7142 23.3567 12.3934 23.2375 13.5417L22.425 20.0526C22.1867 22.3167 21.255 24.6459 16.25 24.6459ZM8.66671 9.47925C6.83588 9.47925 5.57921 9.83675 4.94005 10.5517C4.40921 11.1367 4.23588 12.0359 4.37671 13.3792L5.18921 19.8684C5.37338 21.6017 5.85005 23.0317 9.75005 23.0317H16.25C20.15 23.0317 20.6267 21.6126 20.8109 19.8901L21.6234 13.3792C21.7642 12.0576 21.5909 11.1584 21.06 10.5626C20.4209 9.83675 19.1642 9.47925 17.3334 9.47925H8.66671Z" fill="#1D1D1D"/>
<path d="M16.705 14.2458C16.0983 14.2458 15.6108 13.7583 15.6108 13.1624C15.6108 12.5666 16.0983 12.0791 16.6942 12.0791C17.29 12.0791 17.7775 12.5666 17.7775 13.1624C17.7775 13.7583 17.3008 14.2458 16.705 14.2458Z" fill="#1D1D1D"/>
<path d="M9.12175 14.2458C8.51509 14.2458 8.02759 13.7583 8.02759 13.1624C8.02759 12.5666 8.51509 12.0791 9.11092 12.0791C9.70675 12.0791 10.1943 12.5666 10.1943 13.1624C10.1943 13.7583 9.71759 14.2458 9.12175 14.2458Z" fill="#1D1D1D"/>
</svg>
