<svg width="155" height="19" viewBox="0 0 155 19" fill="none" xmlns="http://www.w3.org/2000/svg">
<path d="M12.1348 14.9482H4.15137V10.5049H11.6831V7.67285H4.15137V3.4248H12.1348V0.385254H0.464844V18H12.1348V14.9482ZM18.3262 18H21.8906V0.385254H18.3262V18ZM28.9976 18H32.562V7.59961H35.0767V4.9751H32.4766V4.1084C32.4766 3.18066 32.9893 2.66797 34.1611 2.66797C34.5151 2.66797 34.8691 2.69238 35.1255 2.74121V0.385254C34.7104 0.299805 33.9658 0.226562 33.3066 0.226562C30.2061 0.226562 28.9976 1.42285 28.9976 3.98633V4.9751H27.2153V7.59961H28.9976V18ZM57.5181 18C61.2778 18 63.6094 16.0591 63.6094 12.9585C63.6094 10.627 61.8516 8.88135 59.459 8.69824V8.60059C61.3267 8.31982 62.7671 6.7085 62.7671 4.77979C62.7671 2.08203 60.6919 0.385254 57.3838 0.385254H49.7178V18H57.5181ZM53.4043 3.13184H56.4316C58.1528 3.13184 59.1416 3.9375 59.1416 5.35352C59.1416 6.84277 58.0186 7.70947 56.0532 7.70947H53.4043V3.13184ZM53.4043 15.2534V10.1387H56.4927C58.6655 10.1387 59.8496 11.0176 59.8496 12.6655C59.8496 14.3501 58.7021 15.2534 56.5781 15.2534H53.4043ZM74.2075 15.6318C72.999 15.6318 72.1934 15.0215 72.1934 14.0449C72.1934 13.1172 72.9502 12.519 74.2808 12.4214L77.0396 12.2505V13.2026C77.0396 14.6187 75.7578 15.6318 74.2075 15.6318ZM73.0356 18.2075C74.6714 18.2075 76.2949 17.3896 77.0273 15.998H77.1006V18H80.543V9.00342C80.543 6.3667 78.3579 4.6333 75.001 4.6333C71.5342 4.6333 69.3735 6.37891 69.2393 8.91797H72.4985C72.6694 7.95361 73.5117 7.29443 74.8423 7.29443C76.1851 7.29443 77.0396 8.00244 77.0396 9.22314V10.0898L73.7437 10.2852C70.4844 10.4805 68.6533 11.8599 68.6533 14.2402C68.6533 16.5962 70.5454 18.2075 73.0356 18.2075ZM86.6001 18H90.1646V10.688C90.1646 8.84473 91.1899 7.77051 92.9478 7.77051C93.4604 7.77051 93.9487 7.85596 94.2417 7.97803V4.84082C93.9976 4.76758 93.6436 4.70654 93.2285 4.70654C91.6904 4.70654 90.5796 5.60986 90.1157 7.27002H90.0425V4.91406H86.6001V18ZM112.154 18V0.385254H108.468V18H112.154ZM118.285 18H129.088V15.2656H122.813V15.2046L128.941 7.17236V4.91406H118.382V7.63623H124.803V7.70947L118.285 15.9736V18ZM134.852 18H138.417V10.1021C138.417 8.63721 139.332 7.61182 140.687 7.61182C142.005 7.61182 142.799 8.44189 142.799 9.8457V18H146.229V10.0532C146.229 8.60059 147.12 7.61182 148.475 7.61182C149.854 7.61182 150.611 8.44189 150.611 9.95557V18H154.176V9.06445C154.176 6.42773 152.455 4.66992 149.891 4.66992C147.975 4.66992 146.412 5.70752 145.826 7.35547H145.753C145.313 5.64648 143.995 4.66992 142.103 4.66992C140.321 4.66992 138.917 5.70752 138.368 7.28223H138.294V4.91406H134.852V18Z" fill="#1D1D1D"/>
</svg>
